<svg xmlns="http://www.w3.org/2000/svg" width="1440" height="2363" fill="none" viewBox="0 0 1440 2363"><g clip-path="url(#clip0)"><rect width="1440" height="2363" fill="#FAEEE7"/><path fill="#FAEEE7" d="M1675.58 222.837H235.583V1122.14H1675.58V222.837Z"/><path fill="#E9B697" d="M230.583 752.958C341.682 767.55 458.241 754.991 556.667 707.444C658.631 658.188 756.382 583.444 786.058 484.622C814.826 388.825 720.836 299.966 708.608 201.477C695.731 97.7634 783.878 -21.5318 712.833 -105.147C642.628 -187.775 496.808 -174.502 380.052 -185.216C281.086 -194.298 184.169 -187.161 88.7371 -162.415C-6.57288 -137.701 -88.7328 -93.4249 -169.597 -42.6935C-273.475 22.476 -411.286 69.1333 -450.439 175.845C-490.163 284.115 -450.457 413.672 -369.656 502.576C-292.953 586.971 -149.381 582.971 -38.3169 629.3C54.9651 668.211 128.449 739.544 230.583 752.958Z"/><path fill="#fff" d="M1535.58 1721.47C1641.23 1724.15 1759.36 1786.87 1845.94 1733.63C1933.05 1680.05 1891.78 1554.9 1941.02 1472.12C1994.56 1382.12 2144.69 1334.24 2143.93 1232.69C2143.19 1133.31 2032.77 1057.3 1937.51 1003.64C1854.77 957.034 1744.79 988.761 1653.61 956.489C1546.98 918.749 1477.98 779.795 1365.64 801.235C1256.06 822.149 1249.02 962.442 1188.36 1045.28C1138 1114.05 1064.61 1168.15 1039.34 1246.85C1011.83 1332.5 1004.69 1424.89 1039.64 1508.42C1075.96 1595.23 1141.91 1677.55 1236.52 1718.2C1327.92 1757.46 1433.87 1718.9 1535.58 1721.47Z"/></g><defs><clipPath id="clip0"><rect width="1440" height="2363" fill="#fff"/></clipPath></defs></svg>